<svg width="20" height="20" viewBox="0 0 20 20" fill="none" xmlns="http://www.w3.org/2000/svg">
<g clip-path="url(#clip0_1173_4709)">
<path d="M10.2767 15.7132C7.10086 15.7132 5.64984 14.0954 5.64984 12.9087C5.64941 12.6257 5.76559 12.3549 5.97105 12.1602C6.1765 11.9654 6.45309 11.8639 6.73574 11.8795C8.09548 11.8795 7.73981 13.9191 10.2767 13.9191C11.5735 13.9191 12.3352 13.1385 12.3352 12.4051C12.3352 11.9645 12.0834 11.4609 11.2273 11.2594L8.3945 10.5449C6.11882 9.96578 5.72223 8.70047 5.72223 7.52644C5.72223 5.09024 7.95069 4.20893 10.0721 4.20893C12.0268 4.20893 14.3496 5.28853 14.3496 6.74899C14.3496 7.3785 13.824 7.71529 13.2134 7.71529C12.0519 7.71529 12.2471 6.08486 9.91161 6.08486C8.75017 6.08486 8.13955 6.62939 8.13955 7.39109C8.13955 8.1528 9.04289 8.4109 9.83607 8.58401L11.926 9.05614C14.2174 9.57234 14.8281 10.9163 14.8281 12.2037C14.8281 14.1835 13.2952 15.7132 10.2736 15.7132M19.0458 11.5238C19.1365 11.0041 19.1818 10.4776 19.1811 9.95004C19.1922 7.30017 18.0279 4.78174 16.002 3.07363C13.9761 1.36552 11.2971 0.643538 8.68722 1.10231C7.88503 0.640445 6.97522 0.398335 6.04958 0.400404C4.1496 0.41201 2.39827 1.4303 1.44828 3.07578C0.498296 4.72125 0.492151 6.7471 1.43214 8.3983C0.907631 11.2803 1.82641 14.2366 3.8921 16.3136C5.9578 18.3906 8.90903 19.3254 11.7938 18.8167C12.595 19.2781 13.5037 19.5202 14.4283 19.5186C16.3273 19.5063 18.0776 18.4885 19.0274 16.844C19.9772 15.1995 19.9842 13.1748 19.0458 11.5238Z" fill="#64D4FF"/>
</g>
<defs>
<clipPath id="clip0_1173_4709">
<rect width="19.2" height="19.2" fill="white" transform="translate(0.733398 0.400391)"/>
</clipPath>
</defs>
</svg>
