<svg width="24" height="24" viewBox="0 0 24 24" fill="none" xmlns="http://www.w3.org/2000/svg">
<path d="M14.8945 8.35651C14.9262 8.42064 14.9878 8.4653 15.0586 8.47565L21.5322 9.42096L16.8486 13.9844C16.7973 14.0344 16.7731 14.1063 16.7852 14.1768L17.8906 20.6212L12.1016 17.5772C12.0382 17.5439 11.9618 17.5439 11.8984 17.5772L6.1084 20.6212L7.21484 14.1768C7.22692 14.1063 7.20265 14.0344 7.15137 13.9844L2.4668 9.42096L8.94141 8.47565C9.01218 8.4653 9.07381 8.42064 9.10547 8.35651L12 2.49225L14.8945 8.35651Z" stroke="#FFC107" stroke-width="0.435043" stroke-linecap="round" stroke-linejoin="round"/>
<path d="M12 17.7701L12 2.00006L8.91 8.26006L2 9.27006L7 14.1401L5.82 21.0201L12 17.7701Z" fill="#FFC107"/>
</svg>
